<svg width="1151" height="1086" viewBox="0 0 1151 1086" fill="none" xmlns="http://www.w3.org/2000/svg">
<g filter="url(#filter0_i_618_307)">
<path fill-rule="evenodd" clip-rule="evenodd" d="M769.596 174.92C814.695 236.755 791.14 335.842 833.11 400.286C889.168 486.361 1148.61 613.599 1148.95 723.862C1149.27 826.674 1006.97 872.999 934.431 950.617C870.399 1019.13 728.224 992.103 647.536 1033.36C563.472 1076.34 457.766 1105.85 384.467 1060.68C310.405 1015.04 344.193 878.508 287.26 811.337C230.519 744.391 114.614 730.857 65.9771 684.911C10.4422 632.448 -29.5468 462.517 39.6604 376.532C116.93 280.53 271.527 379.056 369.285 308.075C463.133 239.931 441.111 43.3469 547.069 8.10204C643.479 -23.9667 712.899 97.184 769.596 174.92Z" stroke="#FF988F" stroke-width="4"/>
</g>
<defs>
<filter id="filter0_i_618_307" x="0.929199" y="0.812012" width="1150.02" height="1116.48" filterUnits="userSpaceOnUse" color-interpolation-filters="sRGB">
<feFlood flood-opacity="0" result="BackgroundImageFix"/>
<feBlend mode="normal" in="SourceGraphic" in2="BackgroundImageFix" result="shape"/>
<feColorMatrix in="SourceAlpha" type="matrix" values="0 0 0 0 0 0 0 0 0 0 0 0 0 0 0 0 0 0 127 0" result="hardAlpha"/>
<feOffset dy="32"/>
<feGaussianBlur stdDeviation="32"/>
<feComposite in2="hardAlpha" operator="arithmetic" k2="-1" k3="1"/>
<feColorMatrix type="matrix" values="0 0 0 0 1 0 0 0 0 0.347448 0 0 0 0 0.295833 0 0 0 0.3 0"/>
<feBlend mode="normal" in2="shape" result="effect1_innerShadow_618_307"/>
</filter>
</defs>
</svg>
