<svg width="661" height="558" viewBox="0 0 661 558" fill="none" xmlns="http://www.w3.org/2000/svg">
<path fill-rule="evenodd" clip-rule="evenodd" d="M320.41 2.15615C374.398 -0.208534 423.297 24.6873 471.321 49.4674C528.236 78.8354 592.511 102.691 623.678 158.641C657.854 219.991 669.838 296.915 645.952 362.954C622.358 428.185 562.904 475.922 499.086 503.105C442.914 527.031 381.07 494.686 320.41 501.616C247.087 509.993 176.863 577.516 109.387 547.627C42.0248 517.789 4.87153 434.233 2.07927 360.611C-0.507212 292.415 60.818 242.85 95.6007 184.134C121.297 140.756 139.619 94.0013 178.807 62.2795C219.665 29.2064 267.895 4.45631 320.41 2.15615Z" stroke="#ABCA00" stroke-width="4"/>
</svg>
