<svg width="335" height="137" viewBox="0 0 335 137" fill="none" xmlns="http://www.w3.org/2000/svg">
<path d="M332.551 78.5824C337.081 59.3627 333.444 37.6477 323.488 23.4912C310.74 5.36625 288.548 1.66706 195.557 0.335795C105.164 -0.955464 45.9723 -0.0315776 15.3059 31.4824C4.12762 42.9692 1.92122 54.2158 1.22966 57.7477C-3.84175 83.6674 14.018 109.045 28.2735 121.372C50.4875 140.581 71.355 134.499 148.809 134.739C246.176 135.038 276.114 144.84 305.745 119.954C311.314 115.272 327.117 101.618 332.551 78.5824Z" fill="#44AAE1"/>
<path d="M24.2944 85.7318C23.2899 83.7267 24.2944 82.3303 26.3071 81.8076L28.0686 81.2849C29.744 80.848 30.7522 81.6321 31.8392 83.1182C33.5147 85.2986 36.3668 86.6951 39.6352 86.6951C43.6605 86.6951 46.6777 84.2532 46.6777 80.9377C46.6777 78.1448 44.4139 76.6625 41.4792 75.6171L35.861 73.6121C29.4068 71.6071 25.3815 67.8547 25.3815 61.6604C25.3815 54.1556 31.0822 48.5737 39.4666 48.5737C44.579 48.5737 49.5263 50.407 52.2924 55.7275C53.383 57.7326 52.3749 59.3045 50.3658 59.7413L48.7729 60.0885C47.0114 60.6113 46.0069 59.8272 44.8337 58.2553C43.4094 56.5116 41.5653 55.9852 39.7213 55.9852C36.0332 55.9852 33.6869 58.3412 33.6869 61.3953C33.6869 64.1882 36.1193 65.6705 38.5481 66.4545L44.5826 68.5492C52.6296 71.1665 54.8109 76.3153 54.8109 81.0273C54.8109 89.402 47.7684 94.2036 39.5527 94.2036C33.0949 94.1961 27.143 91.3174 24.2944 85.7318Z" fill="white"/>
<path d="M60.6973 71.5212C60.6973 58.7817 70.5982 48.5737 84.1452 48.5737C95.0868 48.5737 105.077 55.119 106.292 69.0756C106.552 71.1702 105.337 72.3053 103.252 72.3053H69.5539C69.2937 80.4187 75.9798 86.3516 85.446 86.3516C89.7015 86.3516 93.5221 85.2165 97.2573 82.685C98.9074 81.6396 100.297 81.7255 101.687 83.1219L102.297 83.8201C103.687 85.3024 103.687 87.1356 101.687 88.7934C96.6515 92.893 90.8313 94.2036 85.3605 94.2036C70.0742 94.2073 60.6973 83.9993 60.6973 71.5212ZM97.4319 65.6779C95.176 57.9118 89.0957 56.254 84.3199 56.254C79.2839 56.254 73.0289 58.259 70.3381 65.6779H97.4319Z" fill="white"/>
<path d="M113.688 71.5212C113.688 58.7817 122.95 48.5737 135.623 48.5737C145.858 48.5737 155.204 55.119 156.341 69.0756C156.584 71.1702 155.447 72.3053 153.497 72.3053H121.973C121.729 80.4187 127.984 86.3516 136.84 86.3516C140.82 86.3516 144.395 85.2165 147.889 82.685C149.433 81.6396 150.733 81.7255 152.033 83.1219L152.603 83.8201C153.904 85.3024 153.904 87.1356 152.033 88.7934C147.322 92.893 141.877 94.2036 136.76 94.2036C122.463 94.2073 113.688 83.9993 113.688 71.5212ZM148.056 65.6779C145.945 57.9118 140.257 56.254 135.79 56.254C131.078 56.254 125.227 58.259 122.71 65.6779H148.056Z" fill="white"/>
<path d="M184.628 84.8877L176.593 71.1761V90.151C176.593 92.133 175.527 93.255 173.643 93.255H171.183C169.299 93.255 168.148 92.133 168.148 90.151V53.1497C168.148 51.1677 169.296 50.0457 171.183 50.0457H173.643C175.527 50.0457 176.593 51.1677 176.593 53.1497V68.1569L189.136 51.8579C190.038 50.5661 191.185 50.0457 192.743 50.0457H195.859C198.483 50.0457 199.22 51.7693 197.581 53.8399L184.954 69.8805L191.761 80.8351C194.14 84.371 195.287 86.5265 198.894 86.5265C199.55 86.5265 201.107 86.4416 202.585 85.7514C203.732 85.3196 204.388 85.4931 204.963 86.5265L206.276 89.2873C206.686 90.3208 206.276 91.7897 204.227 92.8232C201.437 94.2036 198.652 94.2036 197.831 94.2036C189.957 94.2036 187.172 88.7706 184.628 84.8877Z" fill="white"/>
<path d="M210.835 74.4573V53.1534C210.835 51.1714 211.956 50.0493 213.937 50.0493H216.523C218.508 50.0493 219.715 51.1714 219.715 53.1534V74.3687C219.715 83.1641 223.68 86.4416 228.251 86.4416C232.733 86.4416 241.698 83.3376 241.698 70.3124V53.1497C241.698 51.1677 242.819 50.0457 244.8 50.0457H247.386C249.367 50.0457 250.577 51.1677 250.577 53.1497V90.151C250.577 92.133 249.371 93.255 247.386 93.255H244.8C242.815 93.255 241.698 92.133 241.698 90.151V84.8029C239.801 90.8412 234.286 94.2036 227.303 94.2036C217.733 94.2073 210.835 87.9955 210.835 74.4573Z" fill="white"/>
<path d="M263.825 89.6276V52.6263C263.825 50.6443 264.989 49.5223 266.905 49.5223H269.402C271.314 49.5223 272.397 50.6443 272.397 52.6263V59.1814C273.811 52.2831 278.554 48.5737 283.547 48.5737L285.378 48.6586C287.126 48.917 287.376 50.3823 287.376 52.1096V54.612C287.376 56.7675 286.542 57.6312 285.128 57.2843C284.381 57.1108 283.629 57.0259 282.881 57.0259C279.886 57.0259 272.397 58.5798 272.397 76.2592V89.6276C272.397 91.6096 271.314 92.7317 269.402 92.7317H266.905C264.989 92.7317 263.825 91.6096 263.825 89.6276Z" fill="white"/>
<path d="M296.206 89.6652V53.1121C296.206 51.1541 297.206 50.0457 298.851 50.0457H300.994C302.639 50.0457 303.566 51.1541 303.566 53.1121V89.6652C303.566 91.6232 302.636 92.7316 300.994 92.7316H298.851C297.209 92.7316 296.206 91.6232 296.206 89.6652Z" fill="white"/>
<path d="M302.087 42.2437C300.23 43.243 298.009 42.3984 296.713 41.2048C294.78 39.4284 294.747 36.7718 294.736 36.0461C294.729 35.3364 294.703 33.4331 295.865 31.847C297.667 29.3806 301.694 28.5598 303.744 30.5662C305.594 32.3823 305 35.6853 304.723 37.2C304.425 38.8416 303.995 41.2207 302.087 42.2437Z" fill="#E33224"/>
</svg>
